<?xml version="1.0" encoding="UTF-8"?>
<svg version="1.1" xmlns="http://www.w3.org/2000/svg" width="800" height="800">
<path d="M0 0 C1.72633667 -0.01045349 1.72633667 -0.01045349 3.48754883 -0.02111816 C7.17923684 -0.03841323 10.87077317 -0.04483736 14.5625 -0.046875 C16.4506543 -0.04838562 16.4506543 -0.04838562 18.37695312 -0.04992676 C36.33582397 -0.04018643 53.80069561 0.39846895 71.5625 3.203125 C73.5153694 3.474502 75.46849776 3.7440217 77.421875 4.01171875 C114.69031689 9.39407938 151.61765538 21.02285511 185.5625 37.203125 C186.33319824 37.57034668 187.10389648 37.93756836 187.89794922 38.31591797 C191.8619333 40.2231094 195.78600559 42.19684784 199.68652344 44.23046875 C201.6293901 45.23780618 203.58334468 46.2210001 205.5390625 47.203125 C234.49065632 61.91955496 261.26707472 81.65045252 284.97265625 103.796875 C287.10906893 105.78183761 289.27692515 107.69243989 291.5 109.578125 C300.15731506 117.09441318 308.16564944 125.45568176 315.5625 134.203125 C316.82900391 135.63591797 316.82900391 135.63591797 318.12109375 137.09765625 C335.45841887 156.78830429 350.50274484 178.46710898 363.5625 201.203125 C364.21871338 202.32920166 364.21871338 202.32920166 364.88818359 203.47802734 C396.11418429 257.36648527 415.51015214 322.1411832 415.765625 384.640625 C415.77607849 386.36696167 415.77607849 386.36696167 415.78674316 388.12817383 C415.80403823 391.81986184 415.81046236 395.51139817 415.8125 399.203125 C415.81350708 400.46189453 415.81451416 401.72066406 415.81555176 403.01757812 C415.80581143 420.97644897 415.36715605 438.44132061 412.5625 456.203125 C412.291123 458.1559944 412.0216033 460.10912276 411.75390625 462.0625 C406.37154562 499.33094189 394.74276989 536.25828038 378.5625 570.203125 C378.19527832 570.97382324 377.82805664 571.74452148 377.44970703 572.53857422 C375.5425156 576.5025583 373.56877716 580.42663059 371.53515625 584.32714844 C370.52781882 586.2700151 369.5446249 588.22396968 368.5625 590.1796875 C353.84607004 619.13128132 334.11517248 645.90769972 311.96875 669.61328125 C309.98378739 671.74969393 308.07318511 673.91755015 306.1875 676.140625 C298.67121182 684.79794006 290.30994324 692.80627444 281.5625 700.203125 C280.12970703 701.46962891 280.12970703 701.46962891 278.66796875 702.76171875 C258.97732071 720.09904387 237.29851602 735.14336984 214.5625 748.203125 C213.43642334 748.85933838 213.43642334 748.85933838 212.28759766 749.52880859 C158.39913973 780.75480929 93.6244418 800.15077714 31.125 800.40625 C29.39866333 800.41670349 29.39866333 800.41670349 27.63745117 800.42736816 C23.94576316 800.44466323 20.25422683 800.45108736 16.5625 800.453125 C14.6743457 800.45463562 14.6743457 800.45463562 12.74804688 800.45617676 C-5.21082397 800.44643643 -22.67569561 800.00778105 -40.4375 797.203125 C-42.3903694 796.931748 -44.34349776 796.6622283 -46.296875 796.39453125 C-83.56531689 791.01217062 -120.49265538 779.38339489 -154.4375 763.203125 C-155.20819824 762.83590332 -155.97889648 762.46868164 -156.77294922 762.09033203 C-160.7369333 760.1831406 -164.66100559 758.20940216 -168.56152344 756.17578125 C-170.5043901 755.16844382 -172.45834468 754.1852499 -174.4140625 753.203125 C-203.36565632 738.48669504 -230.14207472 718.75579748 -253.84765625 696.609375 C-255.98406893 694.62441239 -258.15192515 692.71381011 -260.375 690.828125 C-269.03231506 683.31183682 -277.04064944 674.95056824 -284.4375 666.203125 C-285.28183594 665.24792969 -286.12617188 664.29273438 -286.99609375 663.30859375 C-304.33341887 643.61794571 -319.37774484 621.93914102 -332.4375 599.203125 C-332.87497559 598.45240723 -333.31245117 597.70168945 -333.76318359 596.92822266 C-364.98918429 543.03976473 -384.38515214 478.2650668 -384.640625 415.765625 C-384.64759399 414.61473389 -384.65456299 413.46384277 -384.66174316 412.27807617 C-384.67903823 408.58638816 -384.68546236 404.89485183 -384.6875 401.203125 C-384.68901062 399.3149707 -384.68901062 399.3149707 -384.69055176 397.38867188 C-384.68081143 379.42980103 -384.24215605 361.96492939 -381.4375 344.203125 C-381.166123 342.2502556 -380.8966033 340.29712724 -380.62890625 338.34375 C-375.24654562 301.07530811 -363.61776989 264.14796962 -347.4375 230.203125 C-346.88666748 229.04707764 -346.88666748 229.04707764 -346.32470703 227.86767578 C-344.4175156 223.9036917 -342.44377716 219.97961941 -340.41015625 216.07910156 C-339.40281882 214.1362349 -338.4196249 212.18228032 -337.4375 210.2265625 C-322.72107004 181.27496868 -302.99017248 154.49855028 -280.84375 130.79296875 C-278.85878739 128.65655607 -276.94818511 126.48869985 -275.0625 124.265625 C-267.54621182 115.60830994 -259.18494324 107.59997556 -250.4375 100.203125 C-249.48230469 99.35878906 -248.52710938 98.51445313 -247.54296875 97.64453125 C-227.85232071 80.30720613 -206.17351602 65.26288016 -183.4375 52.203125 C-182.68678223 51.76564941 -181.93606445 51.32817383 -181.16259766 50.87744141 C-127.27413973 19.65144071 -62.4994418 0.25547286 0 0 Z " fill="#090705" transform="translate(384.4375,-0.203125)"/>
<path d="M0 0 C0.7532959 0.28359375 1.5065918 0.5671875 2.28271484 0.859375 C13.37789551 5.0920889 23.29301862 10.15919094 33 17 C31.02203225 21.1705102 28.43604388 24.61043793 25.625 28.25 C25.14289063 28.8996875 24.66078125 29.549375 24.1640625 30.21875 C22.7265625 32.078125 22.7265625 32.078125 20 35 C15.47316026 35 13.02026966 33.59520243 9.1875 31.5 C2.47488039 28.00252961 -4.36287216 25.20153357 -11.5 22.6875 C-12.39952393 22.36265625 -13.29904785 22.0378125 -14.22583008 21.703125 C-27.30898827 17.21281276 -40.20009143 15.48729979 -53.96435547 15.60888672 C-56.13181914 15.62505085 -58.29743373 15.60887752 -60.46484375 15.58984375 C-83.95187654 15.55394356 -105.25489149 23.44558113 -122.09375 39.97265625 C-141.62598209 59.91076912 -147.37729715 88.64963918 -147.30493164 115.56494141 C-146.85953573 140.19597478 -140.25084332 163.39699756 -125 183 C-124.55527344 183.6084375 -124.11054688 184.216875 -123.65234375 184.84375 C-111.35007687 200.62508361 -91.70714863 207.08767331 -72.83984375 210.5859375 C-57.35115381 212.25613194 -41.08836551 212.00336125 -26 208 C-25.30229492 207.81775879 -24.60458984 207.63551758 -23.88574219 207.44775391 C-13.75985146 204.764998 -3.29469361 201.83867154 5.703125 196.3515625 C8 195 8 195 10 195 C10 170.91 10 146.82 10 122 C-10.46 122 -30.92 122 -52 122 C-52 114.41 -52 106.82 -52 99 C-23.29 99 5.42 99 35 99 C35.72195857 126.01105482 35.72195857 126.01105482 35.87890625 137.56445312 C35.98634924 145.436234 36.11312991 153.30423165 36.35791016 161.1730957 C36.55413944 167.52125904 36.66123376 173.86536692 36.70779037 180.21632957 C36.74094248 182.63334222 36.80569653 185.05014277 36.90314102 187.46541786 C37.61454722 205.83651695 37.61454722 205.83651695 33.28633881 211.073452 C28.41315896 215.20600555 22.88455821 217.65160269 17 220 C15.45076398 220.69162452 13.90456464 221.39010117 12.36184692 222.09614563 C-6.00894409 230.44986229 -25.81684756 235.47686826 -46 236 C-46.9914502 236.02723145 -47.98290039 236.05446289 -49.00439453 236.08251953 C-84.63984643 236.91784857 -115.49898984 229.16344282 -142.125 204.3125 C-159.94761842 185.54987006 -169.32240939 162.13784309 -174 137 C-174.17128418 136.28183105 -174.34256836 135.56366211 -174.51904297 134.82373047 C-175.1392327 131.18255566 -175.20071456 127.58535362 -175.23828125 123.90234375 C-175.24798447 123.11947495 -175.25768768 122.33660614 -175.26768494 121.53001404 C-175.29261157 118.99912395 -175.30521036 116.46850058 -175.3125 113.9375 C-175.31511841 113.07852112 -175.31773682 112.21954224 -175.32043457 111.33453369 C-175.32464638 98.48218249 -174.67547075 86.39486877 -171 74 C-170.71125 72.92621094 -170.4225 71.85242188 -170.125 70.74609375 C-164.73161319 52.66380136 -154.98593586 36.58052999 -142 23 C-141.46117187 22.39800781 -140.92234375 21.79601562 -140.3671875 21.17578125 C-106.67989723 -15.13539344 -43.5480018 -16.7566299 0 0 Z " fill="#FB8966" transform="translate(628,289)"/>
<path d="M0 0 C8.91 0 17.82 0 27 0 C27.09281217 23.45348759 27.16408888 46.90693055 27.20724869 70.36056519 C27.22782605 81.25183384 27.25585388 92.1429859 27.30175781 103.03417969 C27.34177386 112.53298272 27.36746784 122.03170126 27.37635398 131.53058624 C27.38154382 136.55471769 27.39364004 141.57860754 27.42292023 146.60266113 C27.4503233 151.34360107 27.45839537 156.08420276 27.45243073 160.82521439 C27.45351994 162.55362418 27.46132419 164.28204677 27.4768219 166.01038742 C27.63957747 185.11877889 23.72140455 203.42168084 12 219 C11.55011719 219.61488281 11.10023438 220.22976563 10.63671875 220.86328125 C1.02234745 233.07759522 -14.74994888 239.29187705 -29.73046875 241.56640625 C-52.4137024 244.20678265 -75.50631688 241.23025388 -94 227 C-102.03557629 220.08869433 -109.87610679 211.36416653 -113 201 C-112.71410799 199.32454345 -112.38610165 197.65523847 -112 196 C-108.75505307 194.9626003 -105.50340596 193.94802761 -102.25 192.9375 C-100.86941406 192.49567383 -100.86941406 192.49567383 -99.4609375 192.04492188 C-98.57148438 191.77099609 -97.68203125 191.49707031 -96.765625 191.21484375 C-95.94868164 190.95823975 -95.13173828 190.70163574 -94.29003906 190.43725586 C-91.77006208 189.95609608 -90.37656078 190.06458261 -88 191 C-86.17578125 193.22265625 -86.17578125 193.22265625 -84.3125 196.0625 C-76.62234164 207.02204177 -67.11721087 213.93485583 -54 217 C-41.92737986 218.23600029 -30.84665329 217.76699959 -20 212 C-18.88625 211.4225 -17.7725 210.845 -16.625 210.25 C-9.47923246 204.12505639 -5.42995873 197.04036779 -3 188 C-2.83276239 187.3820437 -2.66552479 186.76408741 -2.49321938 186.12740517 C-0.49927136 177.66665044 -0.69168274 169.15968674 -0.68115234 160.52490234 C-0.67184102 158.76975041 -0.66167058 157.01460286 -0.65071106 155.25946045 C-0.62353273 150.52054359 -0.60829792 145.78165625 -0.59528303 141.04268217 C-0.57959899 136.08055474 -0.55282569 131.11848713 -0.5272522 126.15640259 C-0.4805575 116.77152688 -0.44376845 107.3866398 -0.41057932 98.00170767 C-0.372292 87.31240385 -0.32289923 76.62316024 -0.27259517 65.93390727 C-0.16941383 43.95598204 -0.08050263 21.978019 0 0 Z " fill="#FA8966" transform="translate(313,283)"/>
<path d="M0 0 C1.32 0 2.64 0 4 0 C4 132 4 264 4 400 C2.68 400 1.36 400 0 400 C0 268 0 136 0 0 Z " fill="#747474" transform="translate(398,200)"/>
<path d="M0 0 C0 3 0 3 -1.46875 4.80932617 C-2.1390625 5.46392822 -2.809375 6.11853027 -3.5 6.79296875 C-4.221875 7.50517578 -4.94375 8.21738281 -5.6875 8.95117188 C-6.450625 9.68916016 -7.21375 10.42714844 -8 11.1875 C-9.1446875 12.31188477 -9.1446875 12.31188477 -10.3125 13.45898438 C-12.20180839 15.31286823 -14.09775206 17.15941069 -16 19 C-16.99 18.67 -17.98 18.34 -19 18 C-16.77506435 15.74578295 -14.54430627 13.49741331 -12.3125 11.25 C-11.68666016 10.61578125 -11.06082031 9.9815625 -10.41601562 9.328125 C-7.09239937 5.98710761 -3.76629589 2.8517269 0 0 Z " fill="#E5876A" transform="translate(498,301)"/>
<path d="M0 0 C0.66 0.33 1.32 0.66 2 1 C-1.86364295 5.48717034 -5.74790208 9.87675353 -10 14 C-10.66 13.67 -11.32 13.34 -12 13 C-10.18777319 11.02058257 -8.37523172 9.04145495 -6.5625 7.0625 C-6.04623047 6.49853516 -5.52996094 5.93457031 -4.99804688 5.35351562 C-1.11328125 1.11328125 -1.11328125 1.11328125 0 0 Z " fill="#2A0D06" transform="translate(511,323)"/>
<path d="M0 0 C0.33 0 0.66 0 1 0 C1.08131463 1.43655854 1.13933559 2.8744483 1.1875 4.3125 C1.23970703 5.51326172 1.23970703 5.51326172 1.29296875 6.73828125 C0.93801608 9.47851584 0.10633718 10.29171079 -2 12 C-1 3.42857143 -1 3.42857143 0 0 Z " fill="#3D1911" transform="translate(484,367)"/>
</svg>
